HIERARCHY
ROOT reference
{
  OFFSET 0 0 0
  CHANNELS 6 Xposition Yposition Zposition Zrotation Xrotation Yrotation
  JOINT Hips
  {
    OFFSET 42.3058 83.3743 257.512
    CHANNELS 6 Xposition Yposition Zposition Zrotation Xrotation Yrotation
    JOINT Spine
    {
      OFFSET 0 7.3847 0
      CHANNELS 6 Xposition Yposition Zposition Zrotation Xrotation Yrotation
      JOINT Spine1
      {
        OFFSET 0 22.52 0
        CHANNELS 6 Xposition Yposition Zposition Zrotation Xrotation Yrotation
        JOINT Neck
        {
          OFFSET 0 22.4276 2.03887
          CHANNELS 6 Xposition Yposition Zposition Zrotation Xrotation Yrotation
          JOINT Head
          {
            OFFSET 0 12.608 -1.80115
            CHANNELS 6 Xposition Yposition Zposition Zrotation Xrotation Yrotation
            End Site
            {
              OFFSET 0 22.5143 0
            }
          }
        }
        JOINT LeftShoulder
        {
          OFFSET 3.70204 19.5563 -0.329131
          CHANNELS 6 Xposition Yposition Zposition Zrotation Xrotation Yrotation
          JOINT LeftArm
          {
            OFFSET 13.7086 0 0
            CHANNELS 6 Xposition Yposition Zposition Zrotation Xrotation Yrotation
            JOINT LeftForeArm
            {
              OFFSET 25.9307 0 0
              CHANNELS 6 Xposition Yposition Zposition Zrotation Xrotation Yrotation
              JOINT LeftHand
              {
                OFFSET 23.5097 0 0
                CHANNELS 6 Xposition Yposition Zposition Zrotation Xrotation Yrotation
                End Site
                {
                  OFFSET 13.5086 0 0
                }
              }
            }
          }
        }
        JOINT RightShoulder
        {
          OFFSET -3.48695 19.5563 -0.329131
          CHANNELS 6 Xposition Yposition Zposition Zrotation Xrotation Yrotation
          JOINT RightArm
          {
            OFFSET -13.7086 0 0
            CHANNELS 6 Xposition Yposition Zposition Zrotation Xrotation Yrotation
            JOINT RightForeArm
            {
              OFFSET -25.9307 0 0
              CHANNELS 6 Xposition Yposition Zposition Zrotation Xrotation Yrotation
              JOINT RightHand
              {
                OFFSET -23.5097 0 0
                CHANNELS 6 Xposition Yposition Zposition Zrotation Xrotation Yrotation
                End Site
                {
                  OFFSET -13.5086 0 0
                }
              }
            }
          }
        }
      }
    }
    JOINT LeftUpLeg
    {
      OFFSET 9.00574 0 0
      CHANNELS 6 Xposition Yposition Zposition Zrotation Xrotation Yrotation
      JOINT LeftLeg
      {
        OFFSET 0 -37.3387 0
        CHANNELS 6 Xposition Yposition Zposition Zrotation Xrotation Yrotation
        JOINT LeftFoot
        {
          OFFSET 0 -36.155 0
          CHANNELS 6 Xposition Yposition Zposition Zrotation Xrotation Yrotation
          JOINT LeftToeBase
          {
            OFFSET 0 -5.85373 13.5086
            CHANNELS 6 Xposition Yposition Zposition Zrotation Xrotation Yrotation
            End Site
            {
              OFFSET 0 0 3.60229
            }
          }
        }
      }
    }
    JOINT RightUpLeg
    {
      OFFSET -9.00574 0 0
      CHANNELS 6 Xposition Yposition Zposition Zrotation Xrotation Yrotation
      JOINT RightLeg
      {
        OFFSET 0 -37.3387 0
        CHANNELS 6 Xposition Yposition Zposition Zrotation Xrotation Yrotation
        JOINT RightFoot
        {
          OFFSET 0 -36.155 0
          CHANNELS 6 Xposition Yposition Zposition Zrotation Xrotation Yrotation
          JOINT RightToeBase
          {
            OFFSET 0 -5.85373 13.5086
            CHANNELS 6 Xposition Yposition Zposition Zrotation Xrotation Yrotation
            End Site
            {
              OFFSET 0 0 3.60229
            }
          }
        }
      }
    }
  }
}
MOTION
Frames:	4
Frame Time:	0.004
0 0 0 0 0 -0 34.0935 40.7541 -170.521 4.33985 49.3392 -3.43371 3.55271e-015 7.3847 0 -4.24361 13.5879 0.829281 0 22.52 0 1.79331 11.5723 0.141821 7.10543e-015 22.4276 2.03887 1.05784 -2.08017 0.301065 0 12.608 -1.80115 -3.80667 6.1805 -0.204308 3.70204 19.5563 -0.329131 -1.82514 -8.36196 -32.0866 13.7086 1.42109e-014 0 -11.6487 12.4975 -37.7896 25.9307 0 0 13.5962 2.92633 -7.24863 23.5097 1.42109e-014 0 27.7567 -0.162279 -15.8985 -3.48695 19.5563 -0.329131 -5.25083 -6.36303 24.4885 -13.7086 -1.42109e-014 0 14.619 -0.219711 45.8318 -25.9307 1.42109e-014 0 -5.48821 6.00233 14.4235 -23.5097 1.42109e-014 -1.77636e-015 -30.795 3.78043 10.588 9.00574 0 0 175.208 -53.077 -175.754 7.10543e-015 -37.3387 7.10543e-015 179.53 63.512 -170.166 0 -36.155 0 -0.732663 -32.8945 -4.62618 0 -5.85373 13.5086 0 0 -7.95139e-016 -9.00574 1.42109e-014 0 -12.0981 -58.9187 -5.73202 0 -37.3387 2.84217e-014 -179.091 68.4067 -179.782 -3.55271e-015 -36.155 -3.55271e-015 14.7134 -10.3535 21.0428 -3.55271e-015 -5.85373 13.5086 1.59028e-015 -3.97569e-016 9.93923e-017 
0 0 0 0 0 -0 34.1302 40.821 -170.474 4.42188 49.4269 -3.45928 0 7.3847 0 -4.23006 13.5391 0.805864 7.10543e-015 22.52 0 1.7714 11.6559 0.1228 0 22.4276 2.03887 1.1746 -2.25608 0.2987 0 12.608 -1.80115 -3.97521 6.31091 -0.238768 3.70204 19.5563 -0.329131 -1.79624 -8.41752 -32.064 13.7086 1.42109e-014 -2.84217e-014 -11.6992 12.4867 -37.834 25.9307 0 1.42109e-014 13.6096 2.8901 -7.26141 23.5097 0 -1.42109e-014 27.7769 -0.196211 -15.8868 -3.48695 19.5563 -0.329131 -5.25341 -6.46685 24.3834 -13.7086 0 0 14.6672 -0.241184 45.9273 -25.9307 -1.42109e-014 7.10543e-015 -5.38149 6.05139 14.3793 -23.5097 1.42109e-014 1.77636e-015 -30.9509 3.78893 10.6223 9.00574 1.42109e-014 0 175.312 -53.171 -175.731 0 -37.3387 -3.55271e-015 179.776 63.6333 -170.468 -1.42109e-014 -36.155 1.42109e-014 -0.731781 -33.0094 -4.58531 7.10543e-015 -5.85373 13.5086 -4.96962e-016 -7.95139e-016 1.59028e-015 -9.00574 0 -2.84217e-014 -12.2363 -58.8115 -5.86648 -7.10543e-015 -37.3387 0 -178.98 68.7669 -180 -7.10543e-015 -36.155 0 14.6572 -10.0502 21.2314 3.55271e-015 -5.85373 13.5086 -2.06902e-033 3.97569e-016 2.98177e-016 
0 0 0 0 0 -0 34.1609 40.8895 -170.431 4.48194 49.5309 -3.462 -7.10543e-015 7.3847 0 -4.20507 13.507 0.780328 -7.10543e-015 22.52 0 1.74506 11.6536 0.104311 0 22.4276 2.03887 1.15906 -2.2699 0.27969 0 12.608 -1.80115 -3.94307 6.32071 -0.252167 3.70204 19.5563 -0.329131 -1.7653 -8.3842 -32.0584 13.7086 0 0 -11.6576 12.6709 -37.9563 25.9307 0 0 13.8063 2.73081 -7.07268 23.5097 0 -1.42109e-014 27.6998 -0.357307 -15.8978 -3.48695 19.5563 -0.329131 -5.25956 -6.51334 24.3187 -13.7086 0 0 14.7566 -0.33209 45.9757 -25.9307 0 3.55271e-015 -5.23497 6.1297 14.3477 -23.5097 0 -2.66454e-015 -31.1331 3.80864 10.6961 9.00574 0 0 175.422 -53.2525 -175.696 -7.10543e-015 -37.3387 7.10543e-015 179.995 63.7655 -170.744 -1.42109e-014 -36.155 0 -0.752652 -33.1444 -4.54854 1.42109e-014 -5.85373 13.5086 9.93923e-017 -7.95139e-016 -7.95139e-016 -9.00574 0 0 -12.3604 -58.7178 -5.97231 -3.55271e-015 -37.3387 0 -178.974 69.1346 179.945 0 -36.155 3.55271e-015 14.7131 -9.74009 21.3834 3.55271e-015 -5.85373 13.5086 -1.59028e-015 0 8.94531e-016 
0 0 0 0 0 -0 34.1904 40.9604 -170.39 4.52785 49.6477 -3.44189 -3.55271e-015 7.3847 0 -4.19686 13.4642 0.757258 -7.10543e-015 22.52 1.42109e-014 1.77262 11.6565 0.080791 7.10543e-015 22.4276 2.03887 1.06384 -2.25286 0.252723 0 12.608 -1.80115 -3.82716 6.2844 -0.254903 3.70204 19.5563 -0.329131 -1.75506 -8.40208 -32.085 13.7086 0 0 -11.722 12.6722 -37.9563 25.9307 0 0 13.8337 2.70619 -7.08265 23.5097 0 0 27.7239 -0.381716 -15.8944 -3.48695 19.5563 -0.329131 -5.30605 -6.57593 24.2366 -13.7086 0 0 14.8459 -0.359272 46.0349 -25.9307 0 0 -5.14348 6.18022 14.2973 -23.5097 0 -8.88178e-016 -31.2805 3.81255 10.7603 9.00574 -1.42109e-014 0 175.559 -53.3188 -175.637 0 -37.3387 -3.55271e-015 -179.816 63.8841 -171 0 -36.155 0 -0.762812 -33.2656 -4.50411 0 -5.85373 13.5086 -9.93923e-017 7.95139e-016 7.95139e-016 -9.00574 -2.84217e-014 -2.84217e-014 -12.4419 -58.6373 -6.15655 -3.55271e-015 -37.3387 0 -178.663 69.5289 179.367 3.55271e-015 -36.155 0 14.7217 -9.39523 21.7401 -3.55271e-015 -5.85373 13.5086 9.65542e-033 -3.97569e-016 1.39149e-015 
